<svg xmlns="http://www.w3.org/2000/svg" viewBox="0 0 400 300" role="img" aria-label="Fully automated biochemistry analyser">
  <defs>
    <linearGradient id="scr2" x1="0" y1="0" x2="1" y2="1">
      <stop offset="0%" stop-color="#14B8A6"/><stop offset="100%" stop-color="#0F766E"/>
    </linearGradient>
  </defs>
  <ellipse cx="200" cy="266" rx="160" ry="14" fill="#0F766E" opacity="0.10"/>
  <!-- main cabinet -->
  <rect x="48" y="58" width="304" height="194" rx="12" fill="#EDF1F5" stroke="#CBD5E1" stroke-width="2"/>
  <rect x="48" y="58" width="304" height="30" rx="12" fill="#1F2937"/>
  <rect x="48" y="76" width="304" height="12" fill="#1F2937"/>
  <circle cx="332" cy="73" r="5" fill="#14B8A6"/>
  <!-- reagent carousel -->
  <circle cx="138" cy="170" r="58" fill="#F8FAFC" stroke="#CBD5E1" stroke-width="2"/>
  <circle cx="138" cy="170" r="40" fill="none" stroke="#E2E8F0" stroke-width="2"/>
  <g>
    <circle cx="138" cy="120" r="6" fill="#0EA5E9"/><circle cx="180" cy="148" r="6" fill="#14B8A6"/>
    <circle cx="180" cy="192" r="6" fill="#B11226"/><circle cx="138" cy="220" r="6" fill="#0F766E"/>
    <circle cx="96" cy="192" r="6" fill="#D97706"/><circle cx="96" cy="148" r="6" fill="#0EA5E9"/>
  </g>
  <circle cx="138" cy="170" r="7" fill="#1F2937"/>
  <!-- screen panel -->
  <rect x="214" y="108" width="118" height="120" rx="8" fill="#0B1220"/>
  <rect x="222" y="116" width="102" height="104" rx="5" fill="url(#scr2)" opacity="0.9"/>
  <g stroke="#ECFEFF" stroke-width="2" fill="none" opacity="0.9">
    <line x1="232" y1="200" x2="316" y2="200"/>
    <polyline points="232,192 250,176 268,184 286,150 304,160 316,140" stroke-linecap="round" stroke-linejoin="round"/>
  </g>
  <rect x="232" y="128" width="50" height="6" rx="3" fill="#ECFEFF" opacity="0.8"/>
</svg>
