<svg xmlns="http://www.w3.org/2000/svg" viewBox="0 0 400 300" role="img" aria-label="Chemiluminescence immunoassay analyser">
  <defs>
    <linearGradient id="scr3" x1="0" y1="0" x2="1" y2="1">
      <stop offset="0%" stop-color="#14B8A6"/><stop offset="100%" stop-color="#0F766E"/>
    </linearGradient>
  </defs>
  <ellipse cx="200" cy="270" rx="150" ry="13" fill="#0F766E" opacity="0.10"/>
  <!-- tower -->
  <rect x="96" y="40" width="150" height="218" rx="12" fill="#EDF1F5" stroke="#CBD5E1" stroke-width="2"/>
  <rect x="96" y="40" width="150" height="30" rx="12" fill="#1F2937"/>
  <rect x="96" y="58" width="150" height="12" fill="#1F2937"/>
  <circle cx="226" cy="55" r="5" fill="#14B8A6"/>
  <!-- big screen -->
  <rect x="112" y="86" width="118" height="92" rx="8" fill="#0B1220"/>
  <rect x="120" y="94" width="102" height="76" rx="5" fill="url(#scr3)" opacity="0.9"/>
  <g stroke="#ECFEFF" stroke-width="2.2" fill="none" stroke-linecap="round" stroke-linejoin="round">
    <polyline points="128,150 146,150 152,118 160,162 168,104 176,158 184,140 214,140"/>
  </g>
  <!-- loading drawer -->
  <rect x="112" y="190" width="118" height="20" rx="5" fill="#F8FAFC" stroke="#CBD5E1" stroke-width="2"/>
  <rect x="124" y="196" width="36" height="8" rx="4" fill="#94A3B8"/>
  <rect x="112" y="220" width="118" height="20" rx="5" fill="#F8FAFC" stroke="#CBD5E1" stroke-width="2"/>
  <circle cx="216" cy="230" r="5" fill="#0F766E"/>
  <!-- side module -->
  <rect x="254" y="120" width="58" height="138" rx="10" fill="#E2E8F0" stroke="#CBD5E1" stroke-width="2"/>
  <g fill="#B11226"><rect x="266" y="134" width="7" height="22" rx="3"/><rect x="280" y="134" width="7" height="22" rx="3"/><rect x="294" y="134" width="7" height="22" rx="3"/></g>
  <rect x="266" y="170" width="34" height="5" rx="2" fill="#94A3B8"/>
  <rect x="266" y="180" width="28" height="5" rx="2" fill="#94A3B8"/>
</svg>
